<svg xmlns="http://www.w3.org/2000/svg" xmlns:xlink="http://www.w3.org/1999/xlink" width="1024" zoomAndPan="magnify" viewBox="0 0 768 767.999994" height="1024" preserveAspectRatio="xMidYMid meet" version="1.0"><defs><clipPath id="57c231d934"><path d="M 222 401 L 566 401 L 566 567.492188 L 222 567.492188 Z M 222 401 " clip-rule="nonzero"/></clipPath><clipPath id="1fe97e43be"><path d="M 196.203125 402 L 274 402 L 274 510 L 196.203125 510 Z M 196.203125 402 " clip-rule="nonzero"/></clipPath><clipPath id="852242f372"><path d="M 494 258 L 571.953125 258 L 571.953125 367 L 494 367 Z M 494 258 " clip-rule="nonzero"/></clipPath><clipPath id="0b022f5015"><path d="M 391 365 L 536.296875 365 L 536.296875 403 L 391 403 Z M 391 365 " clip-rule="nonzero"/></clipPath><clipPath id="fb770de022"><path d="M 365 230.398438 L 403 230.398438 L 403 376 L 365 376 Z M 365 230.398438 " clip-rule="nonzero"/></clipPath><clipPath id="92589d8b32"><path d="M 231.796875 365 L 377 365 L 377 403 L 231.796875 403 Z M 231.796875 365 " clip-rule="nonzero"/></clipPath><clipPath id="af2ee96c5f"><path d="M 365 392 L 403 392 L 403 537.898438 L 365 537.898438 Z M 365 392 " clip-rule="nonzero"/></clipPath><clipPath id="0db5fb8bf7"><path d="M 384 384 L 462 384 L 462 462 L 384 462 Z M 384 384 " clip-rule="nonzero"/></clipPath><clipPath id="563f624505"><path d="M 384.707031 228.535156 L 539.5625 383.394531 L 383.648438 539.308594 L 228.789062 384.453125 Z M 384.707031 228.535156 " clip-rule="nonzero"/></clipPath><clipPath id="96b241a7aa"><path d="M 384.707031 228.535156 L 539.5625 383.394531 L 383.648438 539.308594 L 228.789062 384.453125 Z M 384.707031 228.535156 " clip-rule="nonzero"/></clipPath><clipPath id="4290de7f9a"><path d="M 384.707031 228.535156 L 539.5625 383.394531 L 383.648438 539.308594 L 228.789062 384.453125 Z M 384.707031 228.535156 " clip-rule="nonzero"/></clipPath><clipPath id="f1af4c895f"><path d="M 385 306 L 463 306 L 463 383 L 385 383 Z M 385 306 " clip-rule="nonzero"/></clipPath><clipPath id="8c37ccad63"><path d="M 384.707031 228.535156 L 539.5625 383.394531 L 383.648438 539.308594 L 228.789062 384.453125 Z M 384.707031 228.535156 " clip-rule="nonzero"/></clipPath><clipPath id="8752776dae"><path d="M 384.707031 228.535156 L 539.5625 383.394531 L 383.648438 539.308594 L 228.789062 384.453125 Z M 384.707031 228.535156 " clip-rule="nonzero"/></clipPath><clipPath id="99e942031d"><path d="M 384.707031 228.535156 L 539.5625 383.394531 L 383.648438 539.308594 L 228.789062 384.453125 Z M 384.707031 228.535156 " clip-rule="nonzero"/></clipPath><clipPath id="efbb25e059"><path d="M 306 306 L 384 306 L 384 384 L 306 384 Z M 306 306 " clip-rule="nonzero"/></clipPath><clipPath id="2d4ac22eff"><path d="M 384.707031 228.535156 L 539.5625 383.394531 L 383.648438 539.308594 L 228.789062 384.453125 Z M 384.707031 228.535156 " clip-rule="nonzero"/></clipPath><clipPath id="80a2d52393"><path d="M 384.707031 228.535156 L 539.5625 383.394531 L 383.648438 539.308594 L 228.789062 384.453125 Z M 384.707031 228.535156 " clip-rule="nonzero"/></clipPath><clipPath id="ba656acec4"><path d="M 384.707031 228.535156 L 539.5625 383.394531 L 383.648438 539.308594 L 228.789062 384.453125 Z M 384.707031 228.535156 " clip-rule="nonzero"/></clipPath><clipPath id="d6aafdc3c6"><path d="M 306 385 L 384 385 L 384 462 L 306 462 Z M 306 385 " clip-rule="nonzero"/></clipPath><clipPath id="a238c3a5d4"><path d="M 384.707031 228.535156 L 539.5625 383.394531 L 383.648438 539.308594 L 228.789062 384.453125 Z M 384.707031 228.535156 " clip-rule="nonzero"/></clipPath><clipPath id="3a4e43fd79"><path d="M 384.707031 228.535156 L 539.5625 383.394531 L 383.648438 539.308594 L 228.789062 384.453125 Z M 384.707031 228.535156 " clip-rule="nonzero"/></clipPath><clipPath id="e10c123b3a"><path d="M 384.707031 228.535156 L 539.5625 383.394531 L 383.648438 539.308594 L 228.789062 384.453125 Z M 384.707031 228.535156 " clip-rule="nonzero"/></clipPath><clipPath id="9b23f3081a"><path d="M 378 378 L 390 378 L 390 390 L 378 390 Z M 378 378 " clip-rule="nonzero"/></clipPath><clipPath id="221de5ec6e"><path d="M 384.707031 228.535156 L 539.5625 383.394531 L 383.648438 539.308594 L 228.789062 384.453125 Z M 384.707031 228.535156 " clip-rule="nonzero"/></clipPath><clipPath id="3c2a393379"><path d="M 384.707031 228.535156 L 539.5625 383.394531 L 383.648438 539.308594 L 228.789062 384.453125 Z M 384.707031 228.535156 " clip-rule="nonzero"/></clipPath><clipPath id="6c2b5a218f"><path d="M 384.707031 228.535156 L 539.5625 383.394531 L 383.648438 539.308594 L 228.789062 384.453125 Z M 384.707031 228.535156 " clip-rule="nonzero"/></clipPath></defs><g clip-path="url(#57c231d934)"><path fill="#161515" d="M 231.210938 465.992188 L 233.128906 468.878906 C 233.773438 469.835938 234.386719 470.808594 235.074219 471.734375 C 236.425781 473.605469 237.71875 475.5 239.148438 477.304688 L 241.214844 480.054688 L 243.367188 482.734375 C 244.773438 484.535156 246.296875 486.246094 247.777344 487.980469 C 249.257812 489.714844 250.863281 491.347656 252.367188 493.050781 L 254.734375 495.507812 C 255.527344 496.324219 256.296875 497.15625 257.125 497.9375 C 258.761719 499.511719 260.351562 501.125 262.054688 502.625 L 264.5625 504.910156 C 265.425781 505.644531 266.292969 506.371094 267.140625 507.113281 C 268.820312 508.625 270.605469 510.011719 272.347656 511.441406 C 273.207031 512.167969 274.121094 512.828125 275.015625 513.515625 L 277.703125 515.554688 C 281.371094 518.167969 285.054688 520.734375 288.855469 523.113281 C 296.433594 527.894531 304.355469 532.070312 312.507812 535.65625 C 320.664062 539.230469 329.085938 542.121094 337.625 544.496094 C 346.183594 546.835938 354.925781 548.375 363.710938 549.445312 C 372.503906 550.476562 381.386719 550.765625 390.246094 550.472656 L 391.90625 550.445312 C 392.460938 550.425781 393.011719 550.375 393.5625 550.339844 L 396.878906 550.121094 L 400.191406 549.898438 L 403.492188 549.519531 C 405.691406 549.253906 407.898438 549.070312 410.078125 548.664062 C 411.167969 548.488281 412.261719 548.300781 413.355469 548.144531 C 414.449219 547.96875 415.550781 547.847656 416.632812 547.601562 C 425.367188 546.085938 433.921875 543.660156 442.320312 540.785156 L 445.476562 539.722656 L 448.582031 538.503906 C 450.648438 537.6875 452.742188 536.925781 454.757812 535.976562 L 457.808594 534.617188 L 459.335938 533.941406 C 459.847656 533.714844 460.335938 533.445312 460.835938 533.203125 C 462.816406 532.183594 464.84375 531.246094 466.832031 530.230469 C 474.78125 526.140625 482.320312 521.261719 489.628906 516.019531 L 492.367188 514.039062 L 495.011719 511.941406 L 497.667969 509.839844 C 498.117188 509.5 498.542969 509.128906 498.964844 508.757812 L 500.242188 507.648438 C 501.09375 506.902344 501.953125 506.171875 502.816406 505.441406 L 504.113281 504.339844 L 505.351562 503.183594 L 507.839844 500.867188 L 509.085938 499.707031 L 509.710938 499.128906 L 510.304688 498.519531 C 516.785156 492.160156 522.839844 485.296875 528.347656 477.960938 C 533.925781 470.667969 538.941406 462.890625 543.484375 454.765625 C 548.027344 446.636719 551.917969 438.078125 555.277344 429.230469 C 558.636719 420.378906 561.441406 411.21875 563.738281 401.792969 L 565.394531 401.953125 C 564.472656 411.601562 562.8125 421.179688 560.414062 430.578125 C 558.003906 439.972656 554.917969 449.210938 550.984375 458.089844 C 547.09375 466.988281 542.445312 475.554688 537.171875 483.707031 C 534.5625 487.808594 531.699219 491.738281 528.785156 495.621094 L 524.246094 501.324219 L 519.460938 506.820312 C 506.40625 521.214844 491.117188 533.589844 474.234375 543.257812 C 465.777344 548.054688 456.941406 552.191406 447.839844 555.605469 C 445.554688 556.445312 443.292969 557.34375 440.960938 558.035156 L 437.484375 559.144531 C 436.328125 559.515625 435.171875 559.902344 433.992188 560.195312 L 426.941406 562.078125 L 419.8125 563.640625 C 400.730469 567.386719 381.039062 568.289062 361.722656 565.828125 C 352.066406 564.625 342.5 562.695312 333.160156 559.96875 C 323.824219 557.230469 314.707031 553.757812 305.917969 549.597656 C 304.804688 549.101562 303.730469 548.53125 302.644531 547.992188 L 299.386719 546.347656 L 296.1875 544.597656 C 295.125 544.011719 294.046875 543.449219 293.007812 542.8125 C 290.921875 541.566406 288.804688 540.371094 286.773438 539.035156 L 283.699219 537.074219 L 280.6875 535.015625 C 278.664062 533.671875 276.726562 532.199219 274.765625 530.765625 C 273.777344 530.0625 272.832031 529.292969 271.875 528.546875 L 269.011719 526.292969 L 266.222656 523.945312 C 265.296875 523.160156 264.351562 522.394531 263.457031 521.566406 C 261.65625 519.9375 259.820312 518.34375 258.09375 516.632812 L 255.464844 514.109375 L 252.921875 511.496094 C 251.203125 509.78125 249.597656 507.957031 247.953125 506.167969 C 247.125 505.28125 246.351562 504.339844 245.558594 503.421875 L 243.195312 500.648438 L 240.925781 497.800781 C 240.167969 496.847656 239.398438 495.910156 238.6875 494.925781 C 232.820312 487.179688 227.550781 478.984375 222.953125 470.429688 Z M 231.210938 465.992188 " fill-opacity="1" fill-rule="nonzero"/></g><g clip-path="url(#1fe97e43be)"><path fill="#161515" d="M 203.484375 402.332031 L 196.203125 509.492188 L 227.339844 474.316406 L 273.304688 483.929688 Z M 203.484375 402.332031 " fill-opacity="1" fill-rule="nonzero"/></g><path fill="#161515" d="M 536.878906 302.410156 L 534.964844 299.523438 C 534.324219 298.566406 533.710938 297.597656 533.023438 296.667969 C 531.675781 294.796875 530.386719 292.902344 528.960938 291.097656 L 526.898438 288.347656 L 524.75 285.667969 C 523.347656 283.863281 521.824219 282.152344 520.34375 280.417969 C 518.871094 278.679688 517.265625 277.050781 515.765625 275.347656 L 513.402344 272.886719 C 512.609375 272.074219 511.847656 271.238281 511.019531 270.457031 C 509.382812 268.882812 507.796875 267.265625 506.097656 265.765625 L 503.589844 263.480469 L 501.015625 261.273438 C 497.625 258.292969 494.0625 255.527344 490.472656 252.824219 C 486.8125 250.203125 483.128906 247.640625 479.339844 245.253906 C 471.769531 240.464844 463.851562 236.289062 455.71875 232.683594 C 447.566406 229.101562 439.15625 226.203125 430.625 223.816406 C 429.566406 223.5 428.480469 223.269531 427.410156 222.988281 C 426.332031 222.726562 425.261719 222.445312 424.183594 222.191406 L 420.9375 221.5 C 419.851562 221.273438 418.777344 221.019531 417.683594 220.847656 C 415.5 220.476562 413.332031 220.035156 411.140625 219.730469 L 407.859375 219.226562 C 406.765625 219.070312 405.664062 218.964844 404.566406 218.828125 C 395.777344 217.78125 386.902344 217.484375 378.046875 217.761719 C 375.832031 217.746094 373.628906 217.972656 371.417969 218.097656 L 368.105469 218.3125 L 364.808594 218.6875 C 360.398438 219.101562 356.042969 219.882812 351.667969 220.574219 C 342.941406 222.09375 334.386719 224.484375 325.988281 227.34375 L 322.828125 228.40625 C 321.789062 228.789062 320.761719 229.210938 319.722656 229.609375 C 317.660156 230.433594 315.558594 231.171875 313.546875 232.121094 L 310.496094 233.476562 C 309.480469 233.933594 308.449219 234.359375 307.464844 234.882812 C 305.480469 235.894531 303.460938 236.839844 301.464844 237.839844 L 295.578125 241.042969 C 295.082031 241.300781 294.605469 241.589844 294.128906 241.882812 L 292.695312 242.75 L 289.820312 244.488281 L 288.382812 245.359375 L 286.988281 246.292969 L 284.1875 248.15625 L 282.777344 249.078125 L 282.070312 249.539062 L 281.390625 250.03125 L 278.65625 252 L 275.914062 253.96875 L 273.265625 256.0625 L 269.945312 258.679688 L 269.304688 259.234375 L 268.027344 260.339844 C 267.175781 261.082031 266.316406 261.8125 265.453125 262.542969 L 264.15625 263.640625 L 262.910156 264.792969 L 260.421875 267.101562 L 259.171875 268.257812 C 258.753906 268.640625 258.339844 269.027344 257.949219 269.4375 C 251.46875 275.789062 245.394531 282.628906 239.875 289.949219 C 234.28125 297.222656 229.246094 304.984375 224.6875 313.09375 C 220.128906 321.207031 216.226562 329.75 212.84375 338.585938 C 209.457031 347.421875 206.632812 356.570312 204.3125 365.984375 L 202.65625 365.816406 C 203.601562 356.179688 205.285156 346.609375 207.707031 337.222656 C 208.871094 332.511719 210.355469 327.894531 211.886719 323.292969 L 214.386719 316.460938 L 217.199219 309.75 C 221.105469 300.867188 225.773438 292.316406 231.066406 284.179688 C 233.679688 280.089844 236.546875 276.167969 239.472656 272.296875 L 244.019531 266.605469 L 248.8125 261.121094 C 261.890625 246.761719 277.207031 234.4375 294.089844 224.796875 C 311.015625 215.25 329.4375 208.332031 348.515625 204.53125 C 367.601562 200.824219 387.277344 199.964844 406.578125 202.449219 C 416.226562 203.667969 425.789062 205.597656 435.117188 208.351562 C 444.441406 211.101562 453.550781 214.582031 462.328125 218.753906 C 471.113281 222.914062 479.519531 227.855469 487.519531 233.363281 C 489.542969 234.707031 491.472656 236.1875 493.433594 237.617188 C 494.425781 238.324219 495.363281 239.097656 496.320312 239.84375 L 499.179688 242.097656 C 502.910156 245.207031 506.59375 248.378906 510.078125 251.765625 C 517.078125 258.492188 523.613281 265.71875 529.449219 273.484375 C 535.300781 281.230469 540.558594 289.425781 545.144531 297.984375 Z M 536.878906 302.410156 " fill-opacity="1" fill-rule="nonzero"/><g clip-path="url(#852242f372)"><path fill="#161515" d="M 564.539062 366.101562 L 571.9375 258.949219 L 540.761719 294.089844 L 494.804688 284.425781 Z M 564.539062 366.101562 " fill-opacity="1" fill-rule="nonzero"/></g><g clip-path="url(#0b022f5015)"><path fill="#1d1d1b" d="M 520.292969 375.125 L 504.378906 365.925781 L 504.378906 377.601562 L 391.472656 377.601562 C 393.328125 379.371094 394.480469 381.851562 394.480469 384.679688 C 394.480469 387.070312 393.59375 389.28125 392.179688 391.050781 L 504.46875 391.050781 L 504.46875 402.730469 L 520.382812 393.527344 L 536.296875 384.328125 Z M 520.292969 375.125 " fill-opacity="1" fill-rule="nonzero"/></g><g clip-path="url(#fb770de022)"><path fill="#1d1d1b" d="M 377.503906 375.65625 C 379.273438 373.796875 381.746094 372.648438 384.578125 372.648438 C 386.964844 372.648438 389.175781 373.53125 390.941406 374.949219 L 390.941406 262.585938 L 402.613281 262.585938 L 384.222656 230.734375 L 365.832031 262.585938 L 377.503906 262.585938 Z M 377.503906 375.65625 " fill-opacity="1" fill-rule="nonzero"/></g><g clip-path="url(#92589d8b32)"><path fill="#1d1d1b" d="M 373.613281 383.621094 C 373.613281 381.230469 374.496094 379.019531 375.914062 377.25 L 263.625 377.25 L 263.625 365.570312 L 247.710938 374.773438 L 231.796875 383.972656 L 247.710938 393.175781 L 263.625 402.375 L 263.625 390.695312 L 376.53125 390.695312 C 374.761719 388.839844 373.613281 386.363281 373.613281 383.621094 Z M 373.613281 383.621094 " fill-opacity="1" fill-rule="nonzero"/></g><g clip-path="url(#af2ee96c5f)"><path fill="#1d1d1b" d="M 390.589844 392.644531 C 388.820312 394.5 386.34375 395.652344 383.515625 395.652344 C 381.128906 395.652344 378.917969 394.765625 377.148438 393.351562 L 377.148438 505.714844 L 365.480469 505.714844 L 383.871094 537.566406 L 402.261719 505.714844 L 390.589844 505.714844 Z M 390.589844 392.644531 " fill-opacity="1" fill-rule="nonzero"/></g><path fill="#1d1d1b" d="M 383.871094 376.277344 C 379.625 376.277344 376.089844 379.726562 376.089844 384.0625 C 376.089844 385.742188 376.621094 387.246094 377.503906 388.484375 C 378.917969 390.519531 381.21875 391.757812 383.871094 391.757812 C 386.875 391.757812 389.527344 390.078125 390.765625 387.511719 C 391.296875 386.449219 391.648438 385.210938 391.648438 383.972656 C 391.5625 379.726562 388.113281 376.277344 383.871094 376.277344 Z M 383.871094 376.277344 " fill-opacity="1" fill-rule="nonzero"/><g clip-path="url(#0db5fb8bf7)"><g clip-path="url(#563f624505)"><g clip-path="url(#96b241a7aa)"><g clip-path="url(#4290de7f9a)"><path fill="#1d1d1b" d="M 458.042969 448.636719 L 454.613281 435.878906 L 448.691406 441.800781 L 391.273438 384.382812 C 391.320312 386.222656 390.648438 388.0625 389.214844 389.5 C 388.003906 390.710938 386.429688 391.382812 384.816406 391.558594 L 441.917969 448.664062 L 435.996094 454.585938 L 448.757812 458.011719 L 461.515625 461.441406 Z M 458.042969 448.636719 " fill-opacity="1" fill-rule="nonzero"/></g></g></g></g><g clip-path="url(#f1af4c895f)"><g clip-path="url(#8c37ccad63)"><g clip-path="url(#8752776dae)"><g clip-path="url(#99e942031d)"><path fill="#1d1d1b" d="M 385.15625 376.289062 C 386.996094 376.246094 388.839844 376.921875 390.277344 378.363281 C 391.492188 379.574219 392.167969 381.148438 392.347656 382.765625 L 449.320312 325.792969 L 455.253906 331.730469 L 458.652344 318.980469 L 462.050781 306.226562 L 436.550781 313.023438 L 442.484375 318.960938 Z M 385.15625 376.289062 " fill-opacity="1" fill-rule="nonzero"/></g></g></g></g><g clip-path="url(#efbb25e059)"><g clip-path="url(#2d4ac22eff)"><g clip-path="url(#80a2d52393)"><g clip-path="url(#ba656acec4)"><path fill="#1d1d1b" d="M 379.140625 378.347656 C 380.351562 377.136719 381.921875 376.464844 383.539062 376.289062 L 326.433594 319.183594 L 332.355469 313.261719 L 319.597656 309.835938 L 306.839844 306.40625 L 310.265625 319.164062 L 313.695312 331.921875 L 319.617188 326.003906 L 377.035156 383.421875 C 377.078125 381.578125 377.75 379.738281 379.140625 378.347656 Z M 379.140625 378.347656 " fill-opacity="1" fill-rule="nonzero"/></g></g></g></g><g clip-path="url(#d6aafdc3c6)"><g clip-path="url(#a238c3a5d4)"><g clip-path="url(#3a4e43fd79)"><g clip-path="url(#e10c123b3a)"><path fill="#1d1d1b" d="M 383.199219 391.558594 C 381.355469 391.601562 379.515625 390.925781 378.074219 389.484375 C 376.863281 388.273438 376.1875 386.699219 376.003906 385.082031 L 319.035156 442.050781 L 313.097656 436.117188 L 309.699219 448.867188 L 306.300781 461.621094 L 319.050781 458.222656 L 331.804688 454.824219 L 325.867188 448.886719 Z M 383.199219 391.558594 " fill-opacity="1" fill-rule="nonzero"/></g></g></g></g><g clip-path="url(#9b23f3081a)"><g clip-path="url(#221de5ec6e)"><g clip-path="url(#3c2a393379)"><g clip-path="url(#6c2b5a218f)"><path fill="#1d1d1b" d="M 388.078125 379.839844 C 385.921875 377.683594 382.371094 377.632812 380.175781 379.832031 C 379.324219 380.683594 378.828125 381.71875 378.652344 382.792969 C 378.339844 384.546875 378.878906 386.34375 380.230469 387.691406 C 381.757812 389.21875 383.960938 389.71875 385.890625 389.046875 C 386.699219 388.777344 387.503906 388.328125 388.132812 387.699219 C 390.242188 385.503906 390.238281 382 388.078125 379.839844 Z M 388.078125 379.839844 " fill-opacity="1" fill-rule="nonzero"/></g></g></g></g></svg>