<svg xmlns="http://www.w3.org/2000/svg" xmlns:xlink="http://www.w3.org/1999/xlink" width="1024" zoomAndPan="magnify" viewBox="0 0 768 767.999994" height="1024" preserveAspectRatio="xMidYMid meet" version="1.0"><defs><clipPath id="bb3f2afc6f"><path d="M 42.746094 44.523438 L 611.246094 44.523438 L 611.246094 613.023438 L 42.746094 613.023438 Z M 42.746094 44.523438 " clip-rule="nonzero"/></clipPath><clipPath id="8bdfb5aec8"><path d="M 181.773438 183.550781 L 472.773438 183.550781 L 472.773438 474.550781 L 181.773438 474.550781 Z M 181.773438 183.550781 " clip-rule="nonzero"/></clipPath><clipPath id="23c20ce641"><path d="M 0.773438 0.550781 L 291.457031 0.550781 L 291.457031 291.480469 L 0.773438 291.480469 Z M 0.773438 0.550781 " clip-rule="nonzero"/></clipPath><clipPath id="ff7b39d1c1"><rect x="0" width="292" y="0" height="292"/></clipPath></defs><rect x="-76.8" width="921.6" fill="#ffffff" y="-76.799999" height="921.599993" fill-opacity="1"/><rect x="-76.8" width="921.6" fill="#ffffe0" y="-76.799999" height="921.599993" fill-opacity="1"/><g clip-path="url(#bb3f2afc6f)"><path fill="#c0c0c0" d="M 327.117188 613.269531 C 170.300781 613.269531 42.746094 485.710938 42.746094 328.894531 C 42.746094 172.078125 170.300781 44.523438 327.117188 44.523438 C 346.4375 44.519531 365.5625 46.449219 384.492188 50.320312 C 385.101562 50.445312 385.703125 50.597656 386.296875 50.78125 C 386.886719 50.964844 387.46875 51.175781 388.042969 51.417969 C 388.613281 51.660156 389.175781 51.925781 389.71875 52.222656 C 390.265625 52.515625 390.796875 52.839844 391.308594 53.1875 C 391.824219 53.535156 392.320312 53.90625 392.796875 54.300781 C 393.277344 54.699219 393.734375 55.117188 394.167969 55.558594 C 394.605469 56 395.019531 56.460938 395.410156 56.941406 C 395.800781 57.425781 396.167969 57.925781 396.511719 58.441406 C 396.855469 58.960938 397.167969 59.492188 397.460938 60.042969 C 397.75 60.589844 398.011719 61.152344 398.246094 61.726562 C 398.480469 62.300781 398.6875 62.886719 398.863281 63.480469 C 399.039062 64.078125 399.1875 64.679688 399.304688 65.289062 C 399.421875 65.898438 399.511719 66.511719 399.570312 67.128906 C 399.625 67.746094 399.652344 68.367188 399.652344 68.988281 C 399.648438 69.609375 399.613281 70.226562 399.550781 70.84375 C 399.484375 71.460938 399.390625 72.074219 399.265625 72.683594 C 399.144531 73.289062 398.988281 73.890625 398.804688 74.484375 C 398.621094 75.078125 398.410156 75.660156 398.171875 76.230469 C 397.929688 76.804688 397.660156 77.363281 397.367188 77.910156 C 397.070312 78.453125 396.75 78.984375 396.402344 79.5 C 396.054688 80.011719 395.683594 80.507812 395.285156 80.988281 C 394.890625 81.464844 394.472656 81.921875 394.03125 82.359375 C 393.589844 82.796875 393.128906 83.207031 392.644531 83.601562 C 392.164062 83.992188 391.664062 84.359375 391.148438 84.699219 C 390.628906 85.042969 390.09375 85.359375 389.546875 85.648438 C 388.996094 85.9375 388.4375 86.199219 387.859375 86.433594 C 387.285156 86.667969 386.703125 86.875 386.105469 87.050781 C 385.511719 87.230469 384.910156 87.375 384.300781 87.496094 C 383.691406 87.613281 383.078125 87.699219 382.460938 87.757812 C 381.839844 87.816406 381.222656 87.84375 380.601562 87.839844 C 379.980469 87.835938 379.363281 87.800781 378.746094 87.738281 C 378.128906 87.675781 377.515625 87.582031 376.90625 87.457031 C 360.480469 84.105469 343.882812 82.433594 327.117188 82.433594 C 191.230469 82.433594 80.660156 193.007812 80.660156 328.894531 C 80.660156 464.785156 191.230469 575.355469 327.117188 575.355469 C 463.007812 575.355469 573.578125 464.785156 573.578125 328.894531 C 573.578125 235.03125 518.9375 147.90625 434.402344 106.953125 C 433.839844 106.683594 433.289062 106.390625 432.753906 106.070312 C 432.21875 105.746094 431.699219 105.398438 431.199219 105.027344 C 430.695312 104.65625 430.214844 104.257812 429.753906 103.839844 C 429.292969 103.417969 428.851562 102.976562 428.433594 102.511719 C 428.015625 102.046875 427.621094 101.566406 427.25 101.0625 C 426.878906 100.558594 426.535156 100.039062 426.214844 99.503906 C 425.894531 98.96875 425.605469 98.414062 425.339844 97.851562 C 425.074219 97.285156 424.835938 96.707031 424.628906 96.117188 C 424.421875 95.53125 424.242188 94.933594 424.09375 94.324219 C 423.945312 93.71875 423.828125 93.105469 423.738281 92.488281 C 423.652344 91.871094 423.59375 91.25 423.566406 90.625 C 423.539062 90 423.542969 89.378906 423.578125 88.753906 C 423.613281 88.128906 423.679688 87.507812 423.777344 86.894531 C 423.871094 86.277344 424 85.664062 424.15625 85.058594 C 424.3125 84.457031 424.496094 83.859375 424.710938 83.273438 C 424.925781 82.6875 425.171875 82.113281 425.445312 81.550781 C 425.714844 80.988281 426.015625 80.441406 426.339844 79.910156 C 426.667969 79.375 427.019531 78.863281 427.394531 78.363281 C 427.773438 77.867188 428.171875 77.386719 428.597656 76.929688 C 429.019531 76.472656 429.46875 76.035156 429.933594 75.621094 C 430.402344 75.207031 430.886719 74.816406 431.394531 74.449219 C 431.898438 74.082031 432.421875 73.742188 432.960938 73.429688 C 433.503906 73.113281 434.054688 72.828125 434.625 72.566406 C 435.191406 72.308594 435.769531 72.078125 436.363281 71.875 C 436.953125 71.671875 437.550781 71.5 438.160156 71.355469 C 438.765625 71.210938 439.378906 71.097656 440 71.015625 C 440.617188 70.933594 441.242188 70.882812 441.863281 70.859375 C 442.488281 70.839844 443.113281 70.847656 443.734375 70.886719 C 444.359375 70.929688 444.976562 71 445.59375 71.101562 C 446.210938 71.203125 446.820312 71.335938 447.421875 71.496094 C 448.027344 71.65625 448.621094 71.847656 449.203125 72.070312 C 449.789062 72.289062 450.359375 72.539062 450.921875 72.816406 C 548.472656 120.058594 611.492188 220.589844 611.492188 328.894531 C 611.492188 485.710938 483.933594 613.269531 327.117188 613.269531 Z M 327.117188 613.269531 " fill-opacity="1" fill-rule="nonzero"/></g><path fill="#c0c0c0" d="M 473.171875 223.554688 C 472.152344 223.554688 471.140625 223.472656 470.136719 223.308594 C 469.132812 223.144531 468.148438 222.902344 467.179688 222.582031 C 466.214844 222.261719 465.28125 221.863281 464.378906 221.390625 C 463.480469 220.917969 462.621094 220.378906 461.804688 219.765625 C 460.992188 219.15625 460.230469 218.484375 459.523438 217.753906 C 458.816406 217.019531 458.171875 216.234375 457.59375 215.398438 C 457.011719 214.5625 456.503906 213.6875 456.0625 212.769531 C 455.625 211.847656 455.261719 210.902344 454.976562 209.925781 L 420.816406 93.398438 C 420.617188 92.71875 420.460938 92.03125 420.335938 91.332031 C 420.214844 90.632812 420.132812 89.929688 420.09375 89.222656 C 420.050781 88.515625 420.046875 87.808594 420.082031 87.101562 C 420.121094 86.394531 420.195312 85.691406 420.3125 84.992188 C 420.425781 84.292969 420.582031 83.601562 420.773438 82.921875 C 420.964844 82.238281 421.195312 81.570312 421.464844 80.914062 C 421.730469 80.257812 422.035156 79.621094 422.375 78.996094 C 422.714844 78.375 423.085938 77.773438 423.492188 77.195312 C 423.898438 76.613281 424.339844 76.058594 424.808594 75.527344 C 425.277344 74.996094 425.773438 74.492188 426.296875 74.015625 C 426.824219 73.542969 427.375 73.097656 427.949219 72.683594 C 428.523438 72.269531 429.121094 71.890625 429.738281 71.542969 C 430.355469 71.195312 430.992188 70.882812 431.644531 70.609375 C 432.296875 70.332031 432.960938 70.09375 433.640625 69.890625 C 434.320312 69.691406 435.007812 69.527344 435.707031 69.402344 C 436.402344 69.28125 437.105469 69.195312 437.8125 69.148438 L 558.949219 61.375 C 559.570312 61.332031 560.191406 61.324219 560.808594 61.34375 C 561.429688 61.367188 562.050781 61.417969 562.664062 61.5 C 563.28125 61.582031 563.890625 61.695312 564.496094 61.835938 C 565.101562 61.976562 565.695312 62.148438 566.285156 62.347656 C 566.871094 62.550781 567.449219 62.777344 568.015625 63.035156 C 568.578125 63.292969 569.128906 63.578125 569.667969 63.886719 C 570.207031 64.199219 570.726562 64.535156 571.230469 64.898438 C 571.734375 65.261719 572.21875 65.648438 572.6875 66.058594 C 573.152344 66.46875 573.597656 66.898438 574.019531 67.355469 C 574.445312 67.808594 574.847656 68.28125 575.222656 68.773438 C 575.601562 69.269531 575.953125 69.777344 576.28125 70.308594 C 576.605469 70.835938 576.90625 71.378906 577.179688 71.933594 C 577.453125 72.492188 577.699219 73.0625 577.917969 73.644531 C 578.136719 74.226562 578.324219 74.816406 578.484375 75.417969 C 578.644531 76.015625 578.773438 76.625 578.875 77.234375 C 578.972656 77.847656 579.042969 78.464844 579.082031 79.085938 C 579.121094 79.707031 579.132812 80.324219 579.109375 80.945312 C 579.089844 81.566406 579.039062 82.183594 578.953125 82.800781 C 578.871094 83.417969 578.761719 84.027344 578.617188 84.628906 C 578.476562 85.234375 578.304688 85.832031 578.105469 86.417969 C 577.902344 87.007812 577.675781 87.582031 577.417969 88.148438 C 577.160156 88.714844 576.875 89.265625 576.5625 89.800781 C 576.25 90.339844 575.914062 90.859375 575.550781 91.363281 C 575.1875 91.867188 574.800781 92.351562 574.390625 92.820312 C 573.980469 93.285156 573.546875 93.730469 573.09375 94.152344 C 572.640625 94.578125 572.167969 94.976562 571.671875 95.355469 C 571.179688 95.730469 570.667969 96.082031 570.140625 96.410156 C 569.613281 96.738281 569.070312 97.039062 568.511719 97.308594 C 567.953125 97.582031 567.382812 97.828125 566.800781 98.046875 C 566.21875 98.265625 565.628906 98.453125 565.027344 98.613281 C 564.429688 98.769531 563.820312 98.902344 563.210938 99 C 562.597656 99.101562 561.980469 99.167969 561.359375 99.207031 L 463.882812 105.507812 L 491.378906 199.261719 C 491.582031 199.964844 491.746094 200.679688 491.871094 201.402344 C 491.992188 202.128906 492.074219 202.855469 492.113281 203.589844 C 492.152344 204.320312 492.148438 205.054688 492.101562 205.785156 C 492.054688 206.519531 491.964844 207.246094 491.835938 207.96875 C 491.703125 208.691406 491.53125 209.402344 491.316406 210.105469 C 491.105469 210.808594 490.851562 211.496094 490.558594 212.167969 C 490.261719 212.839844 489.933594 213.492188 489.5625 214.128906 C 489.195312 214.761719 488.789062 215.375 488.347656 215.960938 C 487.910156 216.546875 487.4375 217.109375 486.929688 217.640625 C 486.425781 218.171875 485.890625 218.675781 485.328125 219.144531 C 484.765625 219.613281 484.175781 220.050781 483.5625 220.453125 C 482.949219 220.855469 482.3125 221.222656 481.65625 221.550781 C 481 221.878906 480.328125 222.167969 479.636719 222.417969 C 478.945312 222.667969 478.246094 222.878906 477.53125 223.046875 C 476.816406 223.214844 476.09375 223.34375 475.367188 223.425781 C 474.636719 223.511719 473.90625 223.554688 473.171875 223.554688 Z M 473.171875 223.554688 " fill-opacity="1" fill-rule="nonzero"/><g clip-path="url(#8bdfb5aec8)"><g transform="matrix(1, 0, 0, 1, 181, 183)"><g clip-path="url(#ff7b39d1c1)"><g clip-path="url(#23c20ce641)"><path fill="#c0c0c0" d="M 131.722656 131.488281 C 131.089844 132.105469 130.515625 132.753906 129.984375 133.433594 C 127.097656 137.097656 125.570312 141.46875 125.363281 145.886719 C 125.140625 150.949219 126.6875 156.085938 130 160.28125 C 130.132812 160.457031 130.277344 160.621094 130.425781 160.796875 C 130.5 160.902344 130.589844 160.988281 130.675781 161.09375 C 131 161.472656 131.355469 161.84375 131.707031 162.210938 C 132.371094 162.859375 133.046875 163.460938 133.753906 164.007812 C 137.390625 166.847656 141.746094 168.363281 146.132812 168.554688 C 146.441406 168.570312 146.765625 168.570312 147.074219 168.570312 C 151.816406 168.570312 156.554688 167.023438 160.484375 163.933594 C 161.164062 163.402344 161.8125 162.828125 162.429688 162.210938 C 163.0625 161.578125 163.636719 160.929688 164.167969 160.265625 C 167.464844 156.070312 169.007812 150.949219 168.789062 145.886719 C 168.582031 141.5 167.082031 137.171875 164.238281 133.535156 C 163.695312 132.828125 163.089844 132.136719 162.429688 131.488281 C 162.074219 131.121094 161.707031 130.78125 161.324219 130.445312 C 161.222656 130.355469 161.132812 130.265625 161.03125 130.207031 C 160.855469 130.046875 160.691406 129.898438 160.515625 129.765625 C 156.320312 126.46875 151.195312 124.921875 146.132812 125.144531 C 141.703125 125.335938 137.316406 126.878906 133.664062 129.765625 C 132.988281 130.296875 132.339844 130.871094 131.722656 131.488281 Z M 174.660156 116.578125 L 174.71875 116.515625 L 174.824219 116.679688 L 174.984375 116.78125 L 174.925781 116.839844 L 194.328125 145.886719 L 291.457031 291.238281 L 146.132812 194.125 L 117.058594 174.695312 L 117 174.753906 L 116.898438 174.589844 L 116.734375 174.488281 L 116.796875 174.429688 L 97.746094 145.886719 L 0.78125 0.546875 L 146.132812 97.542969 L 174.660156 116.578125 " fill-opacity="1" fill-rule="nonzero"/></g></g></g></g><path stroke-linecap="round" transform="matrix(0.546826, 0.513304, -0.513304, 0.546826, 529.993225, 493.160396)" fill="none" stroke-linejoin="miter" d="M 42.999022 43.001092 L 314.077954 42.998622 " stroke="#c0c0c0" stroke-width="86" stroke-opacity="1" stroke-miterlimit="4"/></svg>